<svg preserveAspectRatio="none" width="100%" height="100%" overflow="visible" style="display: block;" viewBox="0 0 64.4832 63.9992" fill="none" xmlns="http://www.w3.org/2000/svg">
<g id="_2619298035600">
<path id="Vector" d="M55.8172 63.9964C53.4994 63.9964 51.3205 63.0915 49.6814 61.4524C48.0424 59.8133 47.1375 57.6344 47.1375 55.3167C47.1375 52.9989 48.0424 50.82 49.6753 49.1871C51.3143 47.548 53.4933 46.6431 55.811 46.6431C58.1287 46.6431 60.3076 47.5429 61.9467 49.1809C65.3287 52.5629 65.3287 58.0694 61.9467 61.4575C60.3076 63.0966 58.1339 63.9953 55.8172 63.9953V63.9964Z" fill="url(#paint0_radial_6483_6360)"/>
<path id="Vector_2" d="M8.67969 17.7373C6.36195 17.7373 4.18303 16.8325 2.54396 15.1934C0.904884 13.5543 0 11.3754 0 9.05765C0 6.73991 0.898715 4.56099 2.53779 2.92809C4.17686 1.28387 6.36093 0.384127 8.67866 0.384127C10.9964 0.384127 13.1753 1.28387 14.8082 2.92192C16.4473 4.56099 17.3522 6.73991 17.3522 9.05765C17.3522 11.3754 16.4473 13.5543 14.8082 15.1934C13.1692 16.8325 10.9954 17.7312 8.67866 17.7312V17.7363L8.67969 17.7373Z" fill="url(#paint1_radial_6483_6360)"/>
<path id="Vector_3" d="M55.4256 17.4823C53.1078 17.4823 50.9289 16.5774 49.2898 14.9383C45.9078 11.5563 45.9078 6.04991 49.2898 2.67305C50.9289 1.03398 53.1078 0.129092 55.4307 0.129092C57.7536 0.129092 59.9274 1.03398 61.5664 2.67305C64.9485 6.05506 64.9485 11.5615 61.5664 14.9497C59.9274 16.5826 57.7485 17.4874 55.4369 17.4874L55.4256 17.4823Z" fill="url(#paint2_radial_6483_6360)"/>
<path id="Vector_4" d="M8.90615 63.9966C6.58841 63.9966 4.40949 63.0917 2.76527 61.4526C1.1262 59.8135 0.227485 57.6346 0.227485 55.3169C0.227485 52.9991 1.13237 50.8202 2.77144 49.1811C3.11386 48.8336 3.49946 48.5189 3.99098 48.1878C4.14008 48.0829 4.27787 47.9996 4.41566 47.9174C4.73545 47.7354 5.05525 47.5647 5.35345 47.4259C5.51386 47.3539 5.68455 47.2768 5.86142 47.211C6.17607 47.0948 6.52363 46.9899 6.92054 46.8963C6.99767 46.8747 7.06965 46.8572 7.14162 46.8356C7.18584 46.8243 7.23006 46.8079 7.27427 46.7966L9.20538 46.6639C9.44805 46.6752 9.71335 46.7081 9.99407 46.741L10.1041 46.7575C10.1699 46.7626 10.2583 46.7739 10.3468 46.7791H10.4249L10.5133 46.8007H10.5905C10.7344 46.8058 10.8722 46.8058 11.01 46.8058C14.3375 46.8058 17.6259 45.3878 20.0259 42.9158C22.4146 40.4552 23.7339 37.1503 23.6403 33.8341V33.7343L23.6187 33.6295C23.6023 33.5359 23.5972 33.4413 23.591 33.3477C23.5858 33.2377 23.5745 33.1266 23.5581 33.0166L23.5365 32.8233C23.52 32.6577 23.4974 32.4922 23.4871 32.3266L23.6362 30.3904C23.6475 30.341 23.664 30.2968 23.6753 30.2526L23.7082 30.1313C23.7966 29.7611 23.8902 29.3971 24.0342 29.0392C24.1061 28.8346 24.172 28.6865 24.2491 28.5313C24.4033 28.195 24.5637 27.8855 24.7509 27.5709C24.8342 27.4331 24.9113 27.2953 25.0049 27.1626C25.3524 26.6495 25.6722 26.2629 26.0033 25.9318C27.6424 24.2927 29.8213 23.394 32.1391 23.394C34.4568 23.394 36.6357 24.2937 38.2748 25.9318C41.6516 29.3138 41.6516 34.8202 38.2696 38.2032C37.9272 38.5457 37.5416 38.8603 37.045 39.1966C36.901 39.2963 36.7632 39.3786 36.6254 39.4557C36.3108 39.6439 36.0023 39.8084 35.6876 39.9523C35.5169 40.0295 35.3514 40.1066 35.1858 40.1673C34.8547 40.2886 34.502 40.3935 34.1319 40.4819L33.9221 40.5426C33.8727 40.5539 33.8285 40.5703 33.7843 40.5816L31.8316 40.7194C31.6054 40.7081 31.3627 40.6804 31.1087 40.6475L30.938 40.6259C30.8825 40.6146 30.7889 40.6094 30.6954 40.6043H30.6285L30.5288 40.5765H30.4516C30.3077 40.5765 30.1699 40.5714 30.027 40.5714C26.6995 40.5714 23.411 41.9894 21.011 44.4613C18.6162 46.922 17.3031 50.2331 17.3966 53.5431V53.6428L17.4182 53.7426C17.4347 53.8361 17.4398 53.9307 17.446 54.0243C17.4511 54.1343 17.4624 54.2454 17.4789 54.3554C17.4789 54.4212 17.4954 54.5436 17.5118 54.6588C17.5283 54.7914 17.5447 54.9241 17.5447 55.0557V55.105L17.4069 56.9642C17.3956 57.0032 17.3349 57.2182 17.3185 57.284C17.2249 57.687 17.12 58.0397 16.9987 58.3595C16.9329 58.5364 16.866 58.6906 16.7889 58.8511C16.6398 59.1822 16.4743 59.4968 16.2871 59.8166C16.2038 59.9493 16.1103 60.1035 16.0115 60.2526C15.6856 60.7215 15.372 61.1133 15.0244 61.4557C13.3915 63.0948 11.2115 63.9935 8.89484 63.9935H8.91129L8.90615 63.9966Z" fill="url(#paint3_radial_6483_6360)"/>
<path id="Vector_5" d="M32.3394 63.9949C30.0165 63.9949 27.8365 63.09 26.1985 61.4509C24.5594 59.8119 23.6607 57.6329 23.6545 55.3152C23.6545 52.9975 24.5543 50.8237 26.1923 49.1856C26.5286 48.8494 26.9039 48.5399 27.4232 48.182C27.5507 48.0936 27.6885 48.0113 27.8365 47.928C28.1563 47.7347 28.4597 47.5753 28.7795 47.4314C28.9502 47.3543 29.1157 47.2771 29.2813 47.2165C29.6011 47.1003 29.9548 46.9954 30.3291 46.9131C30.3291 46.9131 30.6324 46.8247 30.6715 46.8134L32.6355 46.6694C32.8669 46.6807 33.1157 46.7137 33.38 46.7466L33.5239 46.7681C33.6237 46.7795 33.7008 46.7846 33.7831 46.7846C33.816 46.7846 33.8489 46.7846 33.8766 46.7897L33.9373 46.8011L34.0206 46.8124C34.1646 46.8124 34.3075 46.8175 34.4514 46.8175C37.7728 46.8175 41.0561 45.3995 43.4509 42.9327C45.8396 40.4771 47.1589 37.161 47.0653 33.8509L47.054 33.4478L47.0149 33.4036C47.0149 33.4036 47.0149 33.3759 47.0149 33.3594C47.0149 33.2658 47.0036 33.1712 46.9933 33.0725L46.9604 32.7969C46.944 32.6427 46.9214 32.4936 46.9162 32.3394L47.0489 30.4638C47.0602 30.4196 47.126 30.1882 47.1424 30.1162C47.2525 29.6689 47.3522 29.3378 47.4622 29.0458C47.5229 28.8689 47.6 28.7095 47.6772 28.544C47.8149 28.2406 47.9805 27.9311 48.179 27.5949L48.218 27.5342C48.2838 27.418 48.3507 27.308 48.4278 27.198C48.7805 26.6797 49.1013 26.2931 49.4314 25.9568C51.0705 24.3178 53.2556 23.4129 55.5723 23.4129C57.89 23.4129 60.0689 24.3126 61.708 25.9507C65.09 29.3327 65.09 34.8391 61.708 38.2273C61.3769 38.5532 60.9903 38.873 60.4771 39.2206C60.3774 39.2864 60.2838 39.3419 60.1903 39.4026L60.0412 39.4962C59.7491 39.6669 59.4345 39.8324 59.125 39.9764C58.9481 40.0535 58.7887 40.1306 58.617 40.1913C58.3137 40.3075 57.9774 40.4011 57.5579 40.5059C57.4746 40.5275 57.4036 40.5502 57.3368 40.5666C57.2874 40.5779 57.2432 40.5944 57.199 40.6057L55.273 40.7383C54.9913 40.727 54.6828 40.6828 54.3908 40.6448C54.291 40.6334 54.2139 40.6283 54.1368 40.6232C54.109 40.6232 54.0761 40.6232 54.0484 40.618L53.8828 40.6016C53.7388 40.5964 53.5959 40.5903 53.452 40.5903C50.1245 40.5903 46.8473 42.0083 44.4473 44.4751C42.0586 46.9358 40.7394 50.2468 40.8391 53.563V53.6628L40.8607 53.7563C40.8772 53.8561 40.8823 53.9548 40.8885 54.0545C40.8936 54.1543 40.9049 54.2592 40.9162 54.3527C40.9214 54.436 40.9327 54.5409 40.944 54.6396C40.9604 54.7887 40.9769 54.9316 40.9831 55.0808L40.8391 56.9841C40.8278 57.0283 40.7558 57.2823 40.7558 57.2823C40.6622 57.6854 40.5574 58.0381 40.436 58.3692C40.3754 58.5234 40.3085 58.6787 40.2376 58.8329L40.216 58.8885C40.072 59.198 39.9126 59.5065 39.7306 59.8047C39.6422 59.9538 39.5538 60.0967 39.4602 60.2355C39.1178 60.727 38.798 61.1239 38.4566 61.4664C36.8237 63.0993 34.6499 63.999 32.3373 63.999L32.3394 63.9949Z" fill="url(#paint4_radial_6483_6360)"/>
<path id="Vector_6" d="M8.9119 40.5738C6.59416 40.5738 4.41524 39.674 2.77617 38.036C1.13709 36.3969 0.232208 34.218 0.232208 31.9003C0.232208 29.5825 1.13195 27.4087 2.77 25.7707C3.10624 25.4344 3.49802 25.1198 4.00085 24.7722C4.13349 24.6838 4.28259 24.5954 4.42552 24.5069C4.72372 24.3301 5.03221 24.1645 5.35817 24.0154C5.52372 23.9383 5.69442 23.8663 5.87128 23.8005C6.19108 23.6843 6.5448 23.5794 6.90881 23.4972L7.12989 23.4365C7.16897 23.4252 7.21318 23.4087 7.25123 23.4036L9.21524 23.2596C9.46923 23.271 9.7448 23.3039 10.0368 23.3481L10.0975 23.3594C10.1972 23.3707 10.2744 23.3758 10.3566 23.3758C10.3844 23.3758 10.4122 23.3758 10.4399 23.381L10.5232 23.3974H10.6003C10.7443 23.4026 10.8872 23.4087 11.0312 23.4087C14.3525 23.4087 17.6358 21.9907 20.0307 19.5239C22.4194 17.0632 23.7386 13.7522 23.6389 10.436V10.3424L23.6173 10.2488C23.5957 10.144 23.5957 10.0391 23.5895 9.92905C23.5895 9.84062 23.5782 9.75218 23.5679 9.66375L23.5402 9.39846C23.5186 9.23805 23.5011 9.07866 23.496 8.91825L23.6286 7.09717L23.6399 7.05296V7.01388C23.6512 6.96967 23.7232 6.73213 23.7232 6.73213C23.8332 6.26324 23.933 5.92699 24.043 5.63393C24.1037 5.46838 24.1808 5.30797 24.2579 5.13728C24.4019 4.82262 24.5674 4.50797 24.7546 4.18817L24.7823 4.13882C24.8595 4.01131 24.9314 3.88997 25.0137 3.7635C25.3561 3.26684 25.6759 2.87506 26.0008 2.54396C27.6399 0.904884 29.8188 0 32.1417 0C34.4646 0 36.6384 0.904884 38.2774 2.53779C41.6595 5.91979 41.6543 11.4262 38.2774 14.8093C37.9412 15.1455 37.5433 15.4715 37.0579 15.8026C36.9253 15.8961 36.8091 15.963 36.6939 16.0339L36.6281 16.073C36.3083 16.2612 35.9936 16.4257 35.7016 16.5645C35.5248 16.6478 35.3654 16.7188 35.1936 16.7794C34.8677 16.9008 34.5201 17.0005 34.1345 17.0941C34.0512 17.1157 33.9803 17.1383 33.9032 17.1548C33.8589 17.1661 33.8147 17.1825 33.7654 17.1938L31.8394 17.3265C31.5967 17.3152 31.3376 17.2823 31.061 17.2494L30.9448 17.2329C30.8564 17.2216 30.7741 17.2165 30.696 17.2113C30.6631 17.2113 30.6302 17.2113 30.5962 17.2062L30.5304 17.1949H30.4471C30.3032 17.1835 30.1602 17.1784 30.0163 17.1784C26.6949 17.1784 23.4116 18.5964 21.0168 21.0632C18.6281 23.5239 17.3088 26.835 17.4024 30.1512V30.2447L17.424 30.3383C17.4456 30.4319 17.4456 30.5368 17.4569 30.6365C17.462 30.7362 17.4733 30.835 17.4846 30.9398C17.4898 31.0231 17.5062 31.1219 17.5176 31.2267C17.534 31.3707 17.5505 31.5136 17.5566 31.6576L17.4188 33.5496C17.4075 33.599 17.3911 33.6494 17.3798 33.6987L17.3304 33.8694C17.2307 34.2941 17.132 34.6478 17.0158 34.9563C16.9551 35.1219 16.8718 35.2874 16.7947 35.4643C16.6507 35.7789 16.4913 36.0823 16.3032 36.3969C16.2147 36.546 16.1325 36.6889 16.0379 36.8216C15.679 37.3347 15.3757 37.7152 15.0394 38.0463C13.4003 39.6853 11.2266 40.5841 8.90984 40.5841V40.5728L8.9119 40.5738Z" fill="url(#paint5_radial_6483_6360)"/>
</g>
<defs>
<radialGradient id="paint0_radial_6483_6360" cx="0" cy="0" r="1" gradientUnits="userSpaceOnUse" gradientTransform="translate(55.8103 55.3197) rotate(90) scale(8.67661 8.67288)">
<stop stop-color="#F3F3F4"/>
<stop offset="1" stop-color="#E9EAEE"/>
</radialGradient>
<radialGradient id="paint1_radial_6483_6360" cx="0" cy="0" r="1" gradientUnits="userSpaceOnUse" gradientTransform="translate(8.67609 9.06073) rotate(90) scale(8.67661 8.67609)">
<stop stop-color="#F3F3F4"/>
<stop offset="1" stop-color="#E9EAEE"/>
</radialGradient>
<radialGradient id="paint2_radial_6483_6360" cx="0" cy="0" r="1" gradientUnits="userSpaceOnUse" gradientTransform="translate(55.4281 8.80827) rotate(90) scale(8.67918 8.6748)">
<stop stop-color="#F3F3F4"/>
<stop offset="1" stop-color="#E9EAEE"/>
</radialGradient>
<radialGradient id="paint3_radial_6483_6360" cx="0" cy="0" r="1" gradientUnits="userSpaceOnUse" gradientTransform="translate(20.5171 43.6953) rotate(90) scale(20.3013 20.2897)">
<stop stop-color="#F3F3F4"/>
<stop offset="1" stop-color="#E9EAEE"/>
</radialGradient>
<radialGradient id="paint4_radial_6483_6360" cx="0" cy="0" r="1" gradientUnits="userSpaceOnUse" gradientTransform="translate(43.9495 43.7059) rotate(90) scale(20.2931 20.295)">
<stop stop-color="#F3F3F4"/>
<stop offset="1" stop-color="#E9EAEE"/>
</radialGradient>
<radialGradient id="paint5_radial_6483_6360" cx="0" cy="0" r="1" gradientUnits="userSpaceOnUse" gradientTransform="translate(20.5221 20.292) rotate(90) scale(20.292 20.2899)">
<stop stop-color="#F3F3F4"/>
<stop offset="1" stop-color="#E9EAEE"/>
</radialGradient>
</defs>
</svg>
