<svg preserveAspectRatio="none" width="100%" height="100%" overflow="visible" style="display: block;" viewBox="0 0 40 23.3412" fill="none" xmlns="http://www.w3.org/2000/svg">
<g id="Group">
<path id="Vector" d="M39.7478 10.9084L29.0632 0.251557C28.8909 0.0899654 28.6633 0 28.4268 0C28.1902 0 27.9626 0.0899654 27.7904 0.251557L25.6907 2.34586L34.2754 10.9084C34.3594 10.9915 34.4261 11.0904 34.4716 11.1994C34.517 11.3083 34.5405 11.4252 34.5405 11.5432C34.5405 11.6612 34.517 11.7781 34.4716 11.887C34.4261 11.9959 34.3594 12.0949 34.2754 12.178L25.4491 20.9814L27.5488 23.0758C27.7211 23.2373 27.9487 23.3273 28.1852 23.3273C28.4218 23.3273 28.6494 23.2373 28.8216 23.0758L39.7478 12.178C39.9098 12.0061 40 11.7791 40 11.5432C40 11.3073 39.9098 11.0803 39.7478 10.9084Z" fill="var(--fill-0, #009C9C)"/>
<path id="Vector_2" d="M21.5474 1.02534L20.7716 0.251557C20.5993 0.0899654 20.3717 0 20.1351 0C19.8987 0 19.6711 0.0899654 19.4987 0.251557L17.399 2.34586L18.7926 3.73588L21.5288 6.46499L24.2603 3.73588L21.5474 1.02534Z" fill="var(--fill-0, #40E3E3)"/>
<path id="Vector_3" d="M21.2868 16.8578L18.5553 19.5869L17.1617 20.977L19.2614 23.0712C19.4337 23.2329 19.6614 23.3228 19.8978 23.3228C20.1344 23.3228 20.362 23.2329 20.5342 23.0712L21.3054 22.2975L24.0416 19.5684L21.2868 16.8578Z" fill="var(--fill-0, #40E3E3)"/>
<path id="Vector_4" d="M25.9827 10.9088C26.1447 11.0807 26.2349 11.3077 26.2349 11.5436C26.2349 11.7795 26.1447 12.0065 25.9827 12.1784L21.2861 16.8581L24.0224 19.5872L31.4551 12.1738C31.5391 12.0907 31.6057 11.9917 31.6512 11.8827C31.6967 11.7738 31.7202 11.6569 31.7202 11.5389C31.7202 11.421 31.6967 11.3041 31.6512 11.1951C31.6057 11.0862 31.5391 10.9873 31.4551 10.9041L24.2825 3.75482L21.5464 6.48387L25.9827 10.9088Z" fill="var(--fill-0, #1ABAB8)"/>
<path id="Vector_5" d="M8.55719 11.1633L15.9899 3.74978L13.2538 1.0207L12.4733 0.251557C12.301 0.0899654 12.0734 0 11.8369 0C11.6004 0 11.3728 0.0899654 11.2005 0.251557L0.265064 11.1633C0.181072 11.2463 0.114408 11.3453 0.0689145 11.4543C0.0234216 11.5631 0 11.68 0 11.7981C0 11.9161 0.0234216 12.0329 0.0689145 12.1419C0.114408 12.2508 0.181072 12.3497 0.265064 12.4328L10.9496 23.0896C11.1219 23.2513 11.3496 23.3412 11.586 23.3412C11.8226 23.3412 12.0502 23.2513 12.2224 23.0896L13.0075 22.3159L15.7437 19.5868L8.55719 12.4328C8.4732 12.3497 8.40653 12.2508 8.36104 12.1419C8.31555 12.0329 8.29213 11.9161 8.29213 11.7981C8.29213 11.68 8.31555 11.5631 8.36104 11.4543C8.40653 11.3453 8.4732 11.2463 8.55719 11.1633Z" fill="var(--fill-0, #87F0F0)"/>
<path id="Vector_6" d="M16.8499 11.1636L20.1342 7.89236L17.398 5.16328L16.0044 3.77326L8.57169 11.1867C8.4877 11.2698 8.42104 11.3688 8.37554 11.4776C8.33005 11.5866 8.30663 11.7035 8.30663 11.8215C8.30663 11.9395 8.33005 12.0564 8.37554 12.1654C8.42104 12.2743 8.4877 12.3732 8.57169 12.4563L15.7304 19.5871L17.124 18.197L19.8601 15.468L16.8314 12.4516C16.6693 12.2798 16.579 12.0528 16.579 11.8168C16.579 11.581 16.6693 11.354 16.8314 11.1821" fill="var(--fill-0, #40E3E3)"/>
<path id="Vector_7" d="M16.8494 12.4329L19.8783 15.4492L23.1579 12.178C23.2419 12.0949 23.3086 11.996 23.354 11.8871C23.3995 11.7781 23.423 11.6612 23.423 11.5432C23.423 11.4252 23.3995 11.3083 23.354 11.1994C23.3086 11.0905 23.2419 10.9915 23.1579 10.9084L20.1338 7.8921L16.8494 11.1632C16.6874 11.3351 16.5972 11.5622 16.5972 11.7981C16.5972 12.0339 16.6874 12.261 16.8494 12.4329Z" fill="var(--fill-0, #17CFCF)"/>
</g>
</svg>
