<svg preserveAspectRatio="none" width="100%" height="100%" overflow="visible" style="display: block;" viewBox="0 0 20 20" fill="none" xmlns="http://www.w3.org/2000/svg">
<g id="SVG">
<path id="Vector" fill-rule="evenodd" clip-rule="evenodd" d="M9.46203 1.4796C9.80233 1.31735 10.1977 1.31735 10.538 1.4796C10.8322 1.61986 10.9943 1.86339 11.0761 1.99699C11.1607 2.13511 11.2475 2.31106 11.3321 2.48255C11.3364 2.49131 11.3408 2.50006 11.3451 2.50879L13.1286 6.12194L17.1469 6.70928C17.3361 6.73689 17.5302 6.76522 17.6876 6.80308C17.8399 6.8397 18.1215 6.91891 18.3456 7.15545C18.6048 7.42908 18.7268 7.80509 18.6774 8.17879C18.6347 8.50182 18.4532 8.73119 18.3514 8.85022C18.2461 8.97324 18.1056 9.11006 17.9686 9.24341L15.0621 12.0744L15.7479 16.0729C15.7803 16.2614 15.8135 16.4549 15.8263 16.6163C15.8386 16.7725 15.8506 17.0649 15.695 17.3514C15.5151 17.6827 15.1952 17.9151 14.8244 17.9838C14.5039 18.0432 14.2295 17.9415 14.0848 17.8814C13.9352 17.8193 13.7615 17.728 13.5922 17.6389L10 15.7498L6.40778 17.6389C6.23848 17.728 6.0648 17.8193 5.91517 17.8814C5.77048 17.9415 5.49607 18.0432 5.17557 17.9838C4.80484 17.9151 4.48495 17.6827 4.30498 17.3514C4.1494 17.0649 4.16135 16.7725 4.17372 16.6163C4.18651 16.4549 4.21972 16.2614 4.2521 16.0729L4.9379 12.0744L2.05234 9.26383C2.04538 9.25704 2.0384 9.25025 2.03141 9.24344C1.89443 9.11009 1.75389 8.97325 1.64863 8.85022C1.54679 8.73119 1.36526 8.50182 1.3226 8.17879C1.27325 7.8051 1.39517 7.42908 1.65441 7.15545C1.8785 6.91891 2.16009 6.8397 2.31239 6.80308C2.46983 6.76522 2.66392 6.73689 2.85308 6.70928C2.86274 6.70787 2.87238 6.70647 2.882 6.70506L6.87145 6.12194L8.65494 2.50879C8.65925 2.50006 8.66356 2.49131 8.66788 2.48255C8.75249 2.31106 8.8393 2.13511 8.92386 1.99699C9.00565 1.86339 9.16785 1.61986 9.46203 1.4796Z" fill="var(--fill-0, #1C1F25)"/>
</g>
</svg>
