<svg preserveAspectRatio="none" width="100%" height="100%" overflow="visible" style="display: block;" viewBox="0 0 20.0007 22.0001" fill="none" xmlns="http://www.w3.org/2000/svg">
<path id="Vector" d="M8.26836 20.0001C8.4439 20.3042 8.69637 20.5566 9.0004 20.7321C9.30443 20.9077 9.6493 21.0001 10.0004 21.0001C10.3514 21.0001 10.6963 20.9077 11.0003 20.7321C11.3043 20.5566 11.5568 20.3042 11.7324 20.0001M11.9164 1.31415C11.0138 1.01002 10.0519 0.925103 9.11004 1.06642C8.1682 1.20774 7.27353 1.57124 6.50001 2.12685C5.7265 2.68246 5.09635 3.41423 4.66169 4.26164C4.22703 5.10905 4.00034 6.04776 4.00036 7.00015C4.00036 11.4991 2.58936 12.9561 1.26036 14.3271C1.12993 14.4705 1.04397 14.6486 1.01292 14.8399C0.98187 15.0312 1.00708 15.2274 1.08547 15.4047C1.16386 15.5819 1.29207 15.7325 1.45449 15.8383C1.61692 15.944 1.80656 16.0002 2.00036 16.0001H18.0004C18.1942 16.0002 18.3838 15.944 18.5462 15.8383C18.7086 15.7325 18.8369 15.5819 18.9152 15.4047C18.9936 15.2274 19.0188 15.0312 18.9878 14.8399C18.9568 14.6486 18.8708 14.4705 18.7404 14.3271C18.5346 14.1152 18.3393 13.8933 18.1554 13.6621M19.0004 7.00015C19.0004 8.657 17.6572 10.0001 16.0004 10.0001C14.3435 10.0001 13.0004 8.657 13.0004 7.00015C13.0004 5.34329 14.3435 4.00015 16.0004 4.00015C17.6572 4.00015 19.0004 5.34329 19.0004 7.00015Z" stroke="var(--stroke-0, #525866)" stroke-width="2" stroke-linecap="round" stroke-linejoin="round"/>
</svg>
