<svg preserveAspectRatio="none" width="100%" height="100%" overflow="visible" style="display: block;" viewBox="0 0 18.6671 18.6671" fill="none" xmlns="http://www.w3.org/2000/svg">
<path id="Icon" d="M6.90852 6.83354C7.10444 6.2766 7.49115 5.80696 8.00015 5.50782C8.50915 5.20867 9.1076 5.09932 9.6895 5.19913C10.2714 5.29895 10.7992 5.60148 11.1794 6.05315C11.5596 6.50482 11.7677 7.07648 11.7669 7.66687C11.7669 9.33354 9.26686 10.1669 9.26686 10.1669M9.33355 13.5002H9.34188M1.00022 6.43584V12.2313C1.00022 12.4351 1.00022 12.537 1.02324 12.6329C1.04366 12.7179 1.07733 12.7992 1.12302 12.8738C1.17455 12.9579 1.24662 13.0299 1.39074 13.1741L5.49303 17.2764C5.63715 17.4205 5.70922 17.4925 5.79331 17.5441C5.86787 17.5898 5.94916 17.6234 6.03419 17.6439C6.1301 17.6669 6.23201 17.6669 6.43584 17.6669H12.2313C12.4351 17.6669 12.537 17.6669 12.6329 17.6439C12.7179 17.6234 12.7992 17.5898 12.8738 17.5441C12.9579 17.4925 13.0299 17.4205 13.1741 17.2764L17.2764 13.1741C17.4205 13.0299 17.4925 12.9579 17.5441 12.8738C17.5898 12.7992 17.6234 12.7179 17.6439 12.6329C17.6669 12.537 17.6669 12.4351 17.6669 12.2313V6.43584C17.6669 6.23201 17.6669 6.1301 17.6439 6.03419C17.6234 5.94916 17.5898 5.86787 17.5441 5.79331C17.4925 5.70922 17.4205 5.63715 17.2764 5.49303L13.1741 1.39074C13.0299 1.24661 12.9579 1.17455 12.8738 1.12302C12.7992 1.07733 12.7179 1.04366 12.6329 1.02324C12.537 1.00022 12.4351 1.00022 12.2313 1.00022H6.43584C6.23201 1.00022 6.1301 1.00022 6.03419 1.02324C5.94916 1.04366 5.86787 1.07733 5.79331 1.12302C5.70922 1.17455 5.63715 1.24662 5.49303 1.39074L1.39074 5.49303C1.24661 5.63715 1.17455 5.70922 1.12302 5.79331C1.07733 5.86787 1.04366 5.94916 1.02324 6.03419C1.00022 6.1301 1.00022 6.23201 1.00022 6.43584Z" stroke="var(--stroke-0, #5E6475)" stroke-width="2" stroke-linecap="round" stroke-linejoin="round"/>
</svg>
