<svg preserveAspectRatio="none" width="100%" height="100%" overflow="visible" style="display: block;" viewBox="0 0 18.6667 15.3333" fill="none" xmlns="http://www.w3.org/2000/svg">
<path id="Icon" d="M9.33334 14.3333H3.66667C2.73325 14.3333 2.26654 14.3333 1.91002 14.1517C1.59641 13.9919 1.34145 13.7369 1.18166 13.4233C1 13.0668 1 12.6001 1 11.6667V3.66667C1 2.73325 1 2.26654 1.18166 1.91002C1.34145 1.59641 1.59641 1.34145 1.91002 1.18166C2.26654 1 2.73325 1 3.66667 1H4C5.86684 1 6.80027 1 7.5133 1.36331C8.14051 1.68289 8.65045 2.19283 8.97002 2.82003C9.33334 3.53307 9.33334 4.46649 9.33334 6.33334M9.33334 14.3333V6.33334M9.33334 14.3333H15C15.9334 14.3333 16.4001 14.3333 16.7567 14.1517C17.0703 13.9919 17.3252 13.7369 17.485 13.4233C17.6667 13.0668 17.6667 12.6001 17.6667 11.6667V3.66667C17.6667 2.73325 17.6667 2.26654 17.485 1.91002C17.3252 1.59641 17.0703 1.34145 16.7567 1.18166C16.4001 1 15.9334 1 15 1H14.6667C12.7998 1 11.8664 1 11.1534 1.36331C10.5262 1.68289 10.0162 2.19283 9.69665 2.82003C9.33334 3.53307 9.33334 4.46649 9.33334 6.33334" stroke="var(--stroke-0, #5779DB)" stroke-width="2" stroke-linecap="round" stroke-linejoin="round"/>
</svg>
